# xmcd CD database file
#
# Track frame offsets:
#	182
#	23650
#	72960
#	108790
#	122452
#	148665
#	163717
#	208315
#	221087
#	242417
#	259575
#
# Disc length: 3813 seconds
#
# Revision: 0
# Processed by: cddbd v1.5.2PL0 Copyright (c) Steve Scherf et al.
# Submitted via: CDex 1.51
#
DISCID=990ee30b
DTITLE=Various Artist - Jazz At The Philharmonic
DYEAR=1995
DGENRE=Jazz
TTITLE0=Introduction: Blues In The Closet
TTITLE1=Perdido
TTITLE2=There'll Never Be Another You
TTITLE3=Body And Soul
TTITLE4=Tangerine
TTITLE5=Polkadots And Moonbeams
TTITLE6=Move
TTITLE7=Loverman
TTITLE8=Alone Together
TTITLE9=Someday My Prince Will Come
TTITLE10=Lester Leaps In
EXTD=YEAR: 1995
EXTT0=
EXTT1=
EXTT2=
EXTT3=
EXTT4=
EXTT5=
EXTT6=
EXTT7=
EXTT8=
EXTT9=
EXTT10=
PLAYORDER=
